<svg width="71" height="71" viewBox="0 0 71 71" fill="none" xmlns="http://www.w3.org/2000/svg">
<g id="emojione-v1:recycling-symbol" clip-path="url(#clip0_1_7563)">
<g id="Group">
<g id="Group_2">
<path id="Vector" fill-rule="evenodd" clip-rule="evenodd" d="M17.4138 45.4771H34.3016V63.0836C32.2726 63.0836 30.2381 63.0814 28.2026 63.0857C25.3778 63.0901 22.5477 63.1639 19.7272 63.0901C16.6029 63.0076 14.2449 61.5442 12.7848 58.765C9.88402 53.2577 7.03647 47.7276 4.11943 42.2312C2.70705 39.5758 2.78196 37.1103 4.54065 34.621C5.62626 33.086 6.5132 31.412 7.58904 29.6337C5.42108 28.3093 3.27266 27.0011 0.917969 25.5638C1.37827 25.4769 1.61602 25.3944 1.85485 25.3901C7.30461 25.326 12.7652 25.2457 18.2041 25.2587C18.8251 25.2609 19.7131 25.6398 20.0225 26.1283C23.3326 31.3555 26.5471 36.6392 29.7854 41.9076C29.8147 41.963 29.7898 42.0509 29.7898 42.3451L22.0439 37.6727L17.4084 45.4739M32.8327 47.1034C32.6525 47.0469 32.5385 46.9796 32.4235 46.9796C27.3406 46.9666 22.2632 46.9503 17.1815 46.9883C16.833 46.9926 16.3738 47.3433 16.1708 47.6646C15.4695 48.7665 14.8746 49.9357 14.2091 51.0637C11.4625 55.7047 14.4566 61.3412 19.8564 61.6006C21.9408 61.7027 24.0295 61.6408 26.1161 61.6451C28.3524 61.6516 30.5877 61.6451 32.8327 61.6451V47.1034Z" fill="#009345"/>
<path id="Vector_2" fill-rule="evenodd" clip-rule="evenodd" d="M13.3113 50.2104C13.3113 50.2104 17.3976 51.0703 17.4529 51.1234C17.5083 51.1788 19.3723 56.6839 19.4103 56.7773C19.4483 56.8674 17.4529 62.4257 17.4529 62.4257L13.1105 58.0833L11.5439 52.0625L13.3157 50.2148" fill="#009345"/>
</g>
<path id="Vector_3" fill-rule="evenodd" clip-rule="evenodd" d="M34.2321 45.6398V63.0964C31.8622 63.0964 29.4967 63.0986 27.1268 63.0942C24.9241 63.0899 22.7171 63.1659 20.5144 63.0432C14.8062 62.7306 11.6438 55.9618 14.5457 50.3904C15.2491 49.0378 15.8777 47.6319 16.6224 46.3085C16.8352 45.9253 17.3227 45.5009 17.6853 45.4965C23.0569 45.4498 28.4274 45.4737 33.7968 45.4965C33.9184 45.4965 34.04 45.5801 34.2321 45.6474" fill="#076735"/>
<g id="Group_3">
<path id="Vector_4" fill-rule="evenodd" clip-rule="evenodd" d="M36.993 13.3299C34.2996 18.4453 31.7311 23.3186 29.1234 28.2679C23.8973 25.5148 18.7938 22.829 13.5449 20.0629C14.4905 18.2684 15.4415 16.4706 16.386 14.6696C17.6974 12.1662 18.9502 9.62909 20.3311 7.16476C21.8596 4.44205 24.2523 3.04053 27.3919 3.04053C33.6135 3.04053 39.8395 3.10024 46.0611 3.07852C49.0683 3.07744 51.2156 4.28138 52.5965 6.99758C53.4465 8.67376 54.5191 10.236 55.5884 12.0185C57.7705 10.7158 59.9265 9.42609 62.3008 8.01045C62.1618 8.45881 62.1238 8.7085 62.0131 8.91911C59.527 13.7729 57.0616 18.6353 54.5104 23.4511C54.2206 24.0004 53.4747 24.6094 52.8929 24.6561C46.7288 25.1468 40.556 25.5311 34.3832 25.9415C34.3213 25.9415 34.2584 25.8774 33.9989 25.7385L41.7404 21.0617C40.1901 18.5344 38.6616 16.0461 36.9963 13.3299M28.3657 26.2172C28.5014 26.0837 28.6154 26.0142 28.6707 25.9132C31.045 21.4232 33.4268 16.9363 35.763 12.4213C35.9215 12.1173 35.8249 11.5441 35.6338 11.2163C34.9868 10.0785 34.228 9.00921 33.5386 7.89212C30.7138 3.30107 24.3315 3.32387 21.586 7.97897C20.5243 9.77348 19.6091 11.6527 18.6332 13.4971C17.5845 15.474 16.5466 17.4563 15.5023 19.4398C19.9142 21.7651 24.1448 23.9928 28.3689 26.2172" fill="#009345"/>
<path id="Vector_5" fill-rule="evenodd" clip-rule="evenodd" d="M34.713 7.49049C34.713 7.49049 32.0489 10.7039 31.9751 10.7289C31.8991 10.7517 26.1595 9.84084 26.0618 9.82781C25.9608 9.81804 21.9712 5.46366 21.9712 5.46366L27.8443 3.64526L33.9053 5.06633L34.713 7.49267" fill="#009345"/>
</g>
<path id="Vector_6" fill-rule="evenodd" clip-rule="evenodd" d="M29.0035 28.1291C23.9337 25.4596 18.8552 22.7824 13.5542 19.9924C14.6626 17.8972 15.7612 15.8041 16.8664 13.7111C17.901 11.7613 18.8596 9.77249 19.993 7.88244C22.9317 2.97983 30.3964 3.33265 33.9713 8.49798C34.8376 9.75186 35.794 10.9612 36.618 12.2357C36.8546 12.6059 37.0034 13.2312 36.8362 13.5569C34.3729 18.3293 31.8532 23.0712 29.3401 27.811C29.2825 27.9195 29.1555 27.989 29.0035 28.1258" fill="#076735"/>
<g id="Group_4">
<path id="Vector_7" fill-rule="evenodd" clip-rule="evenodd" d="M55.2748 45.9567L46.7039 31.4052C51.7976 28.4078 56.7675 25.481 61.8786 22.4717L64.9704 27.7271C66.4099 30.1556 67.9091 32.5603 69.2792 35.0268C70.7893 37.7603 70.7252 40.5319 69.074 43.2036C65.7954 48.4959 62.4767 53.7579 59.2275 59.0611C57.6566 61.6253 55.4919 62.8119 52.4566 62.5535C50.585 62.3972 48.6927 62.4862 46.6127 62.4612L46.4944 70.2743C46.1839 69.9259 45.9896 69.7576 45.8691 69.5513C43.0487 64.8875 40.212 60.2303 37.4545 55.5263C37.1419 54.99 37.0203 54.0336 37.2862 53.518C40.1067 48.0172 43.0302 42.5641 45.9244 37.1035C45.9559 37.0525 46.0439 37.0297 46.3011 36.8788C46.2718 39.912 46.2393 42.8377 46.2078 45.923C49.1693 45.9382 52.0918 45.9469 55.2791 45.961M48.8567 31.8372C48.8968 32.0229 48.8968 32.1542 48.9533 32.2552C51.524 36.6411 54.0871 41.0269 56.7002 45.3802C56.875 45.6755 57.4145 45.897 57.7967 45.9089C59.1048 45.9556 60.4162 45.8709 61.7244 45.8753C67.1155 45.8883 70.4527 40.4472 67.9406 35.6597C66.969 33.8141 65.8508 32.0446 64.7978 30.2457C63.6651 28.3162 62.5292 26.386 61.39 24.4551C57.0943 26.9867 52.9733 29.4109 48.8621 31.834" fill="#009345"/>
<path id="Vector_8" fill-rule="evenodd" clip-rule="evenodd" d="M61.439 47.089C61.439 47.089 60.1058 43.1352 60.1232 43.0581C60.1449 42.9821 63.9402 38.5821 64.0032 38.5018C64.0596 38.4215 69.8644 37.3196 69.8644 37.3196L68.3261 43.2709L63.9261 47.6796L61.439 47.089Z" fill="#009345"/>
</g>
<path id="Vector_9" fill-rule="evenodd" clip-rule="evenodd" d="M46.8828 31.3858L61.9283 22.5261C63.1311 24.5682 64.3372 26.6058 65.5303 28.649C66.6442 30.551 67.8307 32.4139 68.8414 34.3712C71.4654 39.4519 67.2413 45.6116 60.9664 45.9373C59.4444 46.0166 57.9137 46.1881 56.3982 46.2206C55.9563 46.2217 55.343 46.0252 55.1584 45.7104C52.3955 41.1063 49.6869 36.4697 46.9751 31.8341C46.9143 31.731 46.923 31.5834 46.8828 31.3858Z" fill="#076735"/>
</g>
</g>
<defs>
<clipPath id="clip0_1_7563">
<rect width="69.479" height="69.479" fill="white" transform="translate(0.917969 0.869385)"/>
</clipPath>
</defs>
</svg>
