<svg width="16" height="17" viewBox="0 0 16 17" fill="none" xmlns="http://www.w3.org/2000/svg">
<g id="info">
<path id="Icon" fill-rule="evenodd" clip-rule="evenodd" d="M8 2.73962C11.3137 2.73962 14 5.42592 14 8.73962C14 12.0533 11.3137 14.7396 8 14.7396C4.68629 14.7396 2 12.0533 2 8.73962C2 5.42592 4.68629 2.73962 8 2.73962ZM8 8.73962C8.41421 8.73962 8.75 9.07541 8.75 9.48962V11.9896C8.75 12.4038 8.41421 12.7396 8 12.7396C7.58579 12.7396 7.25 12.4038 7.25 11.9896V9.48962C7.25 9.07541 7.58579 8.73962 8 8.73962ZM8 4.73962C8.41421 4.73962 8.75 5.07541 8.75 5.48962V5.98962C8.75 6.40384 8.41421 6.73962 8 6.73962C7.58579 6.73962 7.25 6.40384 7.25 5.98962V5.48962C7.25 5.07541 7.58579 4.73962 8 4.73962Z" fill="#8B8F93"/>
</g>
</svg>
